<!DOCTYPE svg PUBLIC "-//W3C//DTD SVG 1.1//EN" "http://www.w3.org/Graphics/SVG/1.1/DTD/svg11.dtd">
<!-- Uploaded to: SVG Repo, www.svgrepo.com, Transformed by: SVG Repo Mixer Tools -->
<svg height="800px" width="800px" version="1.1" id="Capa_1" xmlns="http://www.w3.org/2000/svg" xmlns:xlink="http://www.w3.org/1999/xlink" viewBox="0 0 53.238 53.238" xml:space="preserve" fill="#ffffff" stroke="#ffffff">
<g id="SVGRepo_bgCarrier" stroke-width="0"/>
<g id="SVGRepo_tracerCarrier" stroke-linecap="round" stroke-linejoin="round"/>
<g id="SVGRepo_iconCarrier"> <g> <g> <path style="fill:#ffffff;" d="M26.62,53.238c7.836,0,14.211-6.376,14.211-14.213c0-4.602-2.207-8.851-5.945-11.525V8.267 C34.885,3.708,31.177,0,26.62,0c-4.559,0-8.268,3.708-8.268,8.267V27.5c-3.737,2.675-5.944,6.924-5.944,11.525 C12.408,46.862,18.783,53.238,26.62,53.238z M20.654,29.565l0.698-0.441v-7.439h3.422c0.276,0,0.5-0.224,0.5-0.5 s-0.224-0.5-0.5-0.5h-3.422v-5.151h3.422c0.276,0,0.5-0.224,0.5-0.5s-0.224-0.5-0.5-0.5h-3.422V9.382h3.422 c0.276,0,0.5-0.224,0.5-0.5s-0.224-0.5-0.5-0.5h-3.422V8.267C21.351,5.363,23.714,3,26.619,3c2.903,0,5.266,2.363,5.266,5.267 v20.857l0.698,0.441c3.286,2.076,5.247,5.612,5.247,9.459c0,6.183-5.029,11.213-11.211,11.213c-6.183,0-11.212-5.03-11.212-11.213 C15.408,35.179,17.369,31.642,20.654,29.565z"/> </g> </g> </g>
</svg>